<?xml version="1.0" encoding="utf-8"?>
<!-- Generator: Adobe Illustrator 24.0.1, SVG Export Plug-In . SVG Version: 6.00 Build 0)  -->
<svg version="1.1" id="Layer_1" xmlns="http://www.w3.org/2000/svg" xmlns:xlink="http://www.w3.org/1999/xlink" x="0px" y="0px"
	 viewBox="0 0 110 109.6" style="enable-background:new 0 0 110 109.6;" xml:space="preserve">
<style type="text/css">
	.st0{fill:url(#SVGID_1_);}
	.st1{opacity:0.5;fill:#FFFFFF;enable-background:new    ;}
	.st2{fill:url(#SVGID_2_);}
	.st3{fill:url(#SVGID_3_);}
	.st4{fill:#57B3B5;}
	.st5{fill:#DE5659;}
	.st6{fill:#D7DB79;}
	.st7{fill:#FFFFFF;}
</style>
<title>Asset 2</title>
<g id="Layer_2_1_">
	<g id="Livello_1">
		
			<linearGradient id="SVGID_1_" gradientUnits="userSpaceOnUse" x1="73.32" y1="36.55" x2="73.32" y2="109.89" gradientTransform="matrix(1 0 0 -1 0 109.89)">
			<stop  offset="0" style="stop-color:#1A171B"/>
			<stop  offset="2.000000e-02" style="stop-color:#1B2327"/>
			<stop  offset="0.1" style="stop-color:#1F484C"/>
			<stop  offset="0.19" style="stop-color:#23686C"/>
			<stop  offset="0.28" style="stop-color:#258386"/>
			<stop  offset="0.39" style="stop-color:#27979A"/>
			<stop  offset="0.5" style="stop-color:#29A5A8"/>
			<stop  offset="0.64" style="stop-color:#2AADB1"/>
			<stop  offset="0.88" style="stop-color:#2AB0B3"/>
		</linearGradient>
		<rect x="36.7" y="0" class="st0" width="73.3" height="73.3"/>
		<rect x="36.7" y="36.2" class="st1" width="36.6" height="37.1"/>
		
			<linearGradient id="SVGID_2_" gradientUnits="userSpaceOnUse" x1="0" y1="91.785" x2="36.66" y2="91.785" gradientTransform="matrix(1 0 0 -1 0 109.89)">
			<stop  offset="0.1" style="stop-color:#FF5555"/>
			<stop  offset="0.4" style="stop-color:#FD5454"/>
			<stop  offset="0.53" style="stop-color:#F65353"/>
			<stop  offset="0.62" style="stop-color:#E94F50"/>
			<stop  offset="0.7" style="stop-color:#D84A4B"/>
			<stop  offset="0.76" style="stop-color:#C14445"/>
			<stop  offset="0.83" style="stop-color:#A43C3E"/>
			<stop  offset="0.88" style="stop-color:#823335"/>
			<stop  offset="0.93" style="stop-color:#5B292B"/>
			<stop  offset="0.98" style="stop-color:#301D21"/>
			<stop  offset="1" style="stop-color:#1A171B"/>
		</linearGradient>
		<polygon class="st2" points="0,36.2 36.7,36.2 36.7,0 		"/>
		
			<linearGradient id="SVGID_3_" gradientUnits="userSpaceOnUse" x1="91.585" y1="36.53" x2="91.585" y2="0.33" gradientTransform="matrix(1 0 0 -1 0 109.89)">
			<stop  offset="0" style="stop-color:#1A171B"/>
			<stop  offset="0" style="stop-color:#1D1B1D"/>
			<stop  offset="5.000000e-02" style="stop-color:#444431"/>
			<stop  offset="0.1" style="stop-color:#666843"/>
			<stop  offset="0.15" style="stop-color:#848854"/>
			<stop  offset="0.22" style="stop-color:#9DA461"/>
			<stop  offset="0.29" style="stop-color:#B2BA6C"/>
			<stop  offset="0.37" style="stop-color:#C2CB75"/>
			<stop  offset="0.47" style="stop-color:#CDD67B"/>
			<stop  offset="0.61" style="stop-color:#D3DD7E"/>
			<stop  offset="1" style="stop-color:#D5DF7F"/>
		</linearGradient>
		<polygon class="st3" points="109.9,73.4 73.3,73.4 73.3,109.6 		"/>
		<path class="st4" d="M40.8,99.2V85.5c0-0.4,0.1-0.9,0.4-1.1c0.5-0.3,1.1-0.4,1.6-0.3c0.6-0.1,1.2,0.1,1.7,0.3
			c0.3,0.3,0.5,0.7,0.5,1.1v4h-1.7V86c0-0.2-0.1-0.3-0.4-0.3c-0.1,0-0.2,0-0.3,0.1c-0.1,0.1-0.1,0.2-0.1,0.3v12.5l0.4,0.5l0.4-0.5
			v-4.7H45v5.4c0,0.4-0.1,0.9-0.5,1.1c-0.5,0.3-1,0.4-1.5,0.4c-0.3,0-0.6,0-0.9-0.1C41.4,100.6,40.8,100,40.8,99.2
			C40.8,99.3,40.8,99.2,40.8,99.2z"/>
		<path class="st5" d="M47,99.2v-15h1.7v14.3c0,0.1,0,0.3,0.1,0.3c0.1,0.2,0.4,0.2,0.5,0c0,0,0,0,0,0c0.1-0.1,0.1-0.2,0.1-0.3V84.2
			h1.7v15c0,0.4-0.1,0.9-0.5,1.2c-0.5,0.3-1.1,0.4-1.7,0.4c-0.6,0-1.1-0.1-1.6-0.4C47.1,100.1,46.9,99.7,47,99.2z"/>
		<path class="st6" d="M53.2,100.5V84.2h3c0.6-0.1,1.2,0.3,1.3,0.9c0,0.1,0,0.2,0,0.4v5.3c0,0.4,0,0.7-0.2,1c-0.3,0.3-0.7,0.5-1,0.6
			l-0.4,0.1h0.3c0.4,0.1,0.8,0.2,1.1,0.5c0.2,0.3,0.3,0.6,0.3,0.9v5.5c0,0.3-0.1,0.7-0.3,0.9c-0.3,0.2-0.6,0.4-1,0.4L53.2,100.5
			L53.2,100.5z M55.7,90.9v-4.4c0-0.2,0-0.4-0.2-0.6c-0.1-0.1-0.3-0.2-0.4-0.2h-0.2v5.8h0.3C55.5,91.6,55.7,91.4,55.7,90.9z
			 M55.7,98.3v-4.8c0-0.3-0.2-0.4-0.5-0.4h-0.3v6h0.3C55.5,99.1,55.7,98.8,55.7,98.3z"/>
		<path class="st7" d="M59.4,100.5V84.2h3.6v1.5h-1.9v5.4h1.8v1.5h-1.8v6.5h1.9v1.5H59.4z"/>
		<path class="st7" d="M18,100.4V86.2c0-0.1-0.1-0.3-0.1-0.4c-0.1-0.1-0.2-0.1-0.3-0.1c-0.1,0-0.2,0.1-0.3,0.2c0,0,0,0.1-0.1,0.1
			c0,0.1,0,0.1,0,0.2v14.2h-2V86.1c0-0.1,0-0.2-0.1-0.3c-0.1-0.1-0.2-0.1-0.3-0.1c-0.1,0-0.2,0-0.3,0.1c-0.1,0.1-0.1,0.2-0.1,0.3
			v14.2h-2V85.6c0-1,0.4-1.6,1.3-1.6c0.3,0,0.5,0,0.8,0.1c0.3,0.1,0.5,0.3,0.7,0.5c0.3-0.4,0.7-0.6,1.2-0.6h0.3c0.1,0,0.4,0,0.6,0.1
			c0.4,0.1,0.6,0.4,0.8,0.7v-0.5H20v16H18z"/>
		<path class="st7" d="M22.2,98.9V85.7c0-0.5,0.2-0.9,0.6-1.2c0.6-0.3,1.2-0.5,1.9-0.4c0.6,0,1.2,0.1,1.7,0.4
			c0.4,0.3,0.6,0.7,0.6,1.2v6.8h-2.8v6.1c0,0.3,0.1,0.4,0.5,0.4s0.4-0.2,0.4-0.4v-4.9h2v5.3c0,0.5-0.2,0.9-0.6,1.2
			c-0.5,0.3-1.1,0.5-1.8,0.4c-0.6,0-1.3-0.1-1.9-0.4C22.4,99.9,22.2,99.4,22.2,98.9z M25,86.4c0-0.2-0.1-0.3-0.3-0.4c0,0,0,0,0,0
			c-0.1,0-0.2,0-0.3,0.1c-0.1,0.1-0.1,0.2-0.1,0.3v4.3H25V86.4z"/>
		<path class="st7" d="M28.7,86.1v-1.8h0.6v-2h2v2h0.9v1.8h-0.9v11.7c0,0.5,0.2,0.7,0.5,0.7h0.4v1.8H31c-0.5,0-0.9-0.1-1.3-0.3
			c-0.3-0.2-0.4-0.6-0.4-1v-13L28.7,86.1z"/>
		<path class="st7" d="M33.9,99v-7.2c0-0.4,0.1-0.7,0.3-1l0.1-0.1l0.1-0.1l2-1.4l0.2-0.1c0-0.1,0.1-0.1,0.1-0.2v-2.7
			c0-0.3-0.2-0.4-0.5-0.4c-0.3,0-0.4,0.1-0.4,0.3v2.7h-2v-3c0-0.4,0.1-0.8,0.4-1.1c0.3-0.2,0.6-0.4,1-0.4c0.4-0.1,0.7-0.1,1.1-0.1
			c0.2,0,0.4,0,0.6,0c0.5,0,1,0.2,1.5,0.5c0.3,0.3,0.4,0.7,0.4,1.1v14.7h-1.9v-0.6c-0.2,0.2-0.5,0.4-0.8,0.6
			c-0.3,0.1-0.6,0.2-0.9,0.2c-0.6,0.1-1.2-0.4-1.3-1c0,0,0,0,0,0V99z M36.7,98.5v-7.2c-0.5,0.3-0.8,0.8-0.8,1.4v5.7
			c0,0.2,0.1,0.3,0.4,0.4C36.5,98.9,36.6,98.8,36.7,98.5z"/>
	</g>
</g>
</svg>
